<svg xmlns="http://www.w3.org/2000/svg" width="187.5" viewBox="0 0 187.5 187.5" height="187.5" version="1.0"><defs><clipPath id="a"><path d="M 9.449219 21 L 178.199219 21 L 178.199219 172 L 9.449219 172 Z M 9.449219 21"/></clipPath></defs><g clip-path="url(#a)"><path fill="#00D8FF" d="M 148.078125 70.414062 C 146.335938 69.816406 144.527344 69.246094 142.660156 68.707031 C 142.96875 67.460938 143.25 66.226562 143.5 65.015625 C 147.597656 45.117188 144.921875 29.085938 135.757812 23.808594 C 126.96875 18.75 112.605469 24.023438 98.09375 36.640625 C 96.699219 37.851562 95.296875 39.136719 93.902344 40.480469 C 92.96875 39.59375 92.039062 38.730469 91.113281 37.910156 C 75.90625 24.421875 60.660156 18.734375 51.507812 24.027344 C 42.730469 29.105469 40.132812 44.175781 43.828125 63.03125 C 44.183594 64.851562 44.601562 66.714844 45.070312 68.605469 C 42.914062 69.214844 40.832031 69.867188 38.839844 70.5625 C 21.007812 76.773438 9.625 86.503906 9.625 96.597656 C 9.625 107.019531 21.847656 117.480469 40.417969 123.824219 C 41.882812 124.324219 43.402344 124.796875 44.96875 125.242188 C 44.460938 127.285156 44.019531 129.289062 43.648438 131.25 C 40.125 149.78125 42.875 164.492188 51.628906 169.53125 C 60.671875 174.742188 75.84375 169.386719 90.621094 156.488281 C 91.789062 155.46875 92.960938 154.386719 94.132812 153.253906 C 95.660156 154.714844 97.179688 156.101562 98.683594 157.402344 C 113 169.703125 127.136719 174.671875 135.878906 169.617188 C 144.910156 164.394531 147.847656 148.582031 144.035156 129.355469 C 143.746094 127.882812 143.402344 126.386719 143.027344 124.863281 C 144.09375 124.546875 145.140625 124.21875 146.160156 123.882812 C 165.464844 117.488281 178.023438 107.164062 178.023438 96.597656 C 178.023438 86.464844 166.269531 76.667969 148.078125 70.414062 Z M 143.894531 117.0625 C 142.976562 117.363281 142.027344 117.660156 141.066406 117.941406 C 138.9375 111.207031 136.0625 104.039062 132.535156 96.632812 C 135.898438 89.402344 138.660156 82.328125 140.730469 75.632812 C 142.457031 76.132812 144.125 76.65625 145.738281 77.210938 C 161.320312 82.570312 170.828125 90.496094 170.828125 96.597656 C 170.828125 103.097656 160.566406 111.542969 143.894531 117.0625 Z M 136.976562 130.75 C 138.667969 139.253906 138.902344 146.941406 137.785156 152.953125 C 136.785156 158.355469 134.765625 161.957031 132.273438 163.394531 C 126.964844 166.464844 115.617188 162.476562 103.382812 151.953125 C 101.972656 150.746094 100.558594 149.457031 99.144531 148.097656 C 103.886719 142.914062 108.628906 136.886719 113.261719 130.191406 C 121.398438 129.472656 129.089844 128.292969 136.066406 126.683594 C 136.410156 128.066406 136.710938 129.421875 136.976562 130.75 Z M 67.039062 162.863281 C 61.851562 164.695312 57.722656 164.75 55.226562 163.308594 C 49.914062 160.246094 47.707031 148.433594 50.71875 132.589844 C 51.0625 130.777344 51.472656 128.910156 51.949219 127.003906 C 58.84375 128.527344 66.480469 129.625 74.640625 130.28125 C 79.300781 136.835938 84.183594 142.851562 89.097656 148.125 C 88.023438 149.160156 86.953125 150.148438 85.886719 151.074219 C 79.355469 156.785156 72.808594 160.832031 67.039062 162.863281 Z M 42.746094 117.023438 C 34.535156 114.214844 27.753906 110.574219 23.105469 106.59375 C 18.929688 103.027344 16.820312 99.476562 16.820312 96.597656 C 16.820312 90.472656 25.960938 82.660156 41.207031 77.347656 C 43.058594 76.703125 44.996094 76.097656 47.003906 75.527344 C 49.113281 82.375 51.878906 89.535156 55.214844 96.769531 C 51.832031 104.117188 49.03125 111.390625 46.902344 118.324219 C 45.46875 117.910156 44.082031 117.476562 42.746094 117.023438 Z M 50.886719 61.652344 C 47.722656 45.496094 49.824219 33.308594 55.113281 30.25 C 60.75 26.992188 73.207031 31.636719 86.332031 43.28125 C 87.175781 44.027344 88.015625 44.804688 88.867188 45.613281 C 83.972656 50.859375 79.136719 56.835938 74.519531 63.347656 C 66.597656 64.078125 59.015625 65.257812 52.046875 66.835938 C 51.609375 65.074219 51.21875 63.34375 50.886719 61.652344 Z M 123.523438 79.570312 C 121.859375 76.695312 120.148438 73.886719 118.40625 71.15625 C 123.78125 71.835938 128.925781 72.734375 133.757812 73.839844 C 132.3125 78.484375 130.503906 83.34375 128.371094 88.324219 C 126.847656 85.425781 125.226562 82.503906 123.523438 79.570312 Z M 93.902344 50.746094 C 97.226562 54.339844 100.546875 58.347656 103.816406 62.699219 C 100.519531 62.542969 97.183594 62.460938 93.824219 62.460938 C 90.496094 62.460938 87.1875 62.542969 83.910156 62.695312 C 87.179688 58.382812 90.535156 54.378906 93.902344 50.746094 Z M 64.09375 79.621094 C 62.429688 82.503906 60.84375 85.40625 59.339844 88.320312 C 57.242188 83.355469 55.453125 78.476562 53.988281 73.761719 C 58.792969 72.6875 63.914062 71.808594 69.253906 71.144531 C 67.484375 73.898438 65.761719 76.726562 64.09375 79.617188 Z M 69.40625 122.5625 C 63.890625 121.949219 58.691406 121.117188 53.886719 120.070312 C 55.375 115.273438 57.207031 110.292969 59.347656 105.21875 C 60.855469 108.132812 62.445312 111.035156 64.121094 113.925781 C 65.828125 116.871094 67.59375 119.75 69.40625 122.5625 Z M 94.101562 142.953125 C 90.691406 139.277344 87.292969 135.210938 83.96875 130.839844 C 87.191406 130.964844 90.480469 131.03125 93.824219 131.03125 C 97.257812 131.03125 100.652344 130.953125 103.988281 130.808594 C 100.710938 135.257812 97.394531 139.332031 94.101562 142.953125 Z M 128.4375 104.964844 C 130.6875 110.089844 132.589844 115.042969 134.09375 119.761719 C 129.214844 120.871094 123.9375 121.765625 118.386719 122.4375 C 120.136719 119.671875 121.859375 116.8125 123.558594 113.875 C 125.273438 110.90625 126.898438 107.925781 128.4375 104.964844 Z M 117.320312 110.285156 C 114.691406 114.847656 111.984375 119.195312 109.242188 123.304688 C 104.25 123.660156 99.085938 123.84375 93.824219 123.84375 C 88.582031 123.84375 83.484375 123.683594 78.574219 123.363281 C 75.722656 119.203125 72.960938 114.839844 70.347656 110.324219 C 67.738281 105.824219 65.335938 101.285156 63.160156 96.769531 C 65.335938 92.25 67.730469 87.703125 70.324219 83.207031 L 70.324219 83.210938 C 72.925781 78.703125 75.660156 74.359375 78.492188 70.222656 C 83.496094 69.84375 88.632812 69.648438 93.824219 69.648438 C 99.039062 69.648438 104.179688 69.847656 109.183594 70.230469 C 111.972656 74.335938 114.691406 78.664062 117.300781 83.171875 C 119.9375 87.726562 122.367188 92.242188 124.558594 96.671875 C 122.371094 101.171875 119.953125 105.734375 117.320312 110.285156 Z M 132.160156 30.03125 C 137.804688 33.28125 139.996094 46.382812 136.449219 63.5625 C 136.226562 64.660156 135.96875 65.773438 135.695312 66.90625 C 128.707031 65.296875 121.125 64.097656 113.183594 63.355469 C 108.550781 56.773438 103.757812 50.789062 98.941406 45.605469 C 100.238281 44.363281 101.535156 43.175781 102.816406 42.058594 C 115.25 31.25 126.871094 26.984375 132.160156 30.03125 Z M 93.824219 81.574219 C 102.125 81.574219 108.863281 88.296875 108.863281 96.597656 C 108.863281 104.890625 102.125 111.617188 93.824219 111.617188 C 85.523438 111.617188 78.785156 104.890625 78.785156 96.597656 C 78.785156 88.296875 85.523438 81.574219 93.824219 81.574219 Z M 93.824219 81.574219"/></g></svg>